<svg width="151" height="43" viewBox="0 0 151 43" fill="none" xmlns="http://www.w3.org/2000/svg">
<path d="M2.79101 0C1.26864 0 0 1.18699 0 2.71313C0 4.23926 1.18406 5.51104 2.70643 5.51104C4.2288 5.51104 5.49744 4.32405 5.49744 2.79791C5.49744 1.27178 4.2288 0 2.79101 0ZM104.621 0C103.098 0 101.83 1.27178 101.83 2.79791C101.83 4.32405 103.098 5.59583 104.621 5.59583C106.143 5.59583 107.412 4.32405 107.412 2.79791C107.412 1.27178 106.143 0 104.621 0ZM11.164 0.847853V4.74798H96.2476V0.847853H11.164ZM22.6664 11.446C19.6216 11.446 17.3381 13.2265 15.9849 14.2439L15.8157 14.4135C15.4774 13.0569 14.3779 12.1243 13.0247 12.0395H11.164V33.4902H15.9849V17.8049C16.9152 17.2962 19.1142 15.9396 21.144 15.9396C23.8504 15.9396 24.3579 17.381 24.3579 20.4333V33.4902H29.1787V19.8398C29.1787 15.4309 28.7559 11.446 22.6664 11.446ZM89.7352 11.446C86.6905 11.446 84.4069 13.2265 83.0537 14.2439C82.9691 14.3287 82.9691 14.3287 82.8845 14.4135C82.5462 13.0569 81.4467 12.1243 80.0935 12.0395H78.2329V33.4902H83.0537V17.8049C83.984 17.2962 86.183 15.9396 88.2128 15.9396C90.9193 15.9396 91.4267 17.381 91.4267 20.4333V33.4902H96.2476V19.8398C96.2476 15.4309 95.8247 11.446 89.7352 11.446ZM121.959 11.5308C115.615 11.5308 111.64 15.8548 111.64 22.6377C111.64 30.6923 114.685 33.9141 122.72 33.9141C124.411 33.9141 126.103 33.6598 127.794 33.2358L127.118 29.2509C125.765 29.5053 124.411 29.6748 123.058 29.7596C117.814 29.7596 116.63 27.64 116.63 22.7225C116.63 17.7201 118.999 15.7701 122.043 15.7701C123.65 15.7701 125.173 16.1092 126.61 16.7027L127.964 12.8874C126.103 11.8699 123.989 11.3612 121.959 11.5308ZM140.312 11.5308C134.391 11.5308 130.416 15.7701 130.416 22.9768C130.416 29.8444 133.884 33.9989 139.973 33.9989C145.725 33.9989 150.038 30.1836 150.038 22.8072C150.038 15.6005 146.909 11.5308 140.312 11.5308ZM65.8848 11.5308C60.3027 11.5308 56.1585 14.4135 56.1585 23.1464C56.1585 31.5401 60.1336 33.9141 66.3922 33.9141C68.7603 33.9989 71.1285 33.6598 73.412 33.0663L72.6508 29.0813C70.8747 29.4205 69.0986 29.5901 67.238 29.5901C63.6858 29.5901 60.9793 28.9118 60.8948 24.2486H73.9195V22.3833C73.9195 15.6005 71.6359 11.5308 65.8848 11.5308ZM43.895 11.7004C38.2284 11.7004 33.4921 15.6005 33.4921 22.892C33.4921 32.6423 38.5667 33.8293 43.1338 33.8293C44.5716 33.8293 45.8402 33.3206 46.9397 32.388C46.9397 32.8119 46.9397 33.151 46.9397 33.575C46.9397 37.3903 44.8253 37.899 41.6114 37.899C39.5816 37.8142 37.5518 37.5599 35.6065 37.0512L34.8453 41.1209C37.298 41.8839 39.8353 42.2231 42.3726 42.2231C46.6014 42.2231 51.676 40.0187 51.676 34.0837V12.5482C49.1387 12.0395 46.5168 11.7852 43.895 11.7004ZM0.338304 12.0395V33.4902H5.15914V12.0395H0.338304ZM102.252 12.0395V33.4902H107.073V12.0395H102.252ZM65.4619 15.4309C67.4917 15.4309 69.0986 17.2114 69.0141 20.518H61.0639C61.2331 16.9571 63.3475 15.4309 65.4619 15.4309ZM140.227 15.6005C144.202 15.6005 145.133 19.0767 145.133 22.7225C145.133 26.6226 144.202 29.7596 140.312 29.7596C136.506 29.7596 135.237 26.7921 135.237 22.7225C135.237 19.0767 136.252 15.6005 140.227 15.6005ZM43.8104 15.9396C44.8253 15.9396 45.9248 16.0244 46.9397 16.194V28.7422C45.8402 29.4205 44.6562 29.7596 43.3875 29.8444C40.2582 29.8444 38.2284 28.0639 38.2284 22.9768C38.2284 18.9071 39.8353 15.9396 43.8104 15.9396Z" fill="#121212"/>
</svg>
