<svg width="961" height="377" viewBox="0 0 961 377" fill="none" xmlns="http://www.w3.org/2000/svg">
<path d="M921 32.918H836.876C830.248 32.918 824.876 38.2906 824.876 44.918V83.2963C824.876 89.9237 819.503 95.2963 812.876 95.2963H639.515C632.887 95.2963 627.515 100.669 627.515 107.296L627.515 132.001C627.515 138.628 622.142 144.001 615.515 144.001H493.555" stroke="url(#paint0_linear_1_5287)"/>
<path d="M510.939 159.719H694.255C700.883 159.719 706.255 165.091 706.255 171.719V187C706.255 193.627 711.628 199 718.255 199H794" stroke="url(#paint1_linear_1_5287)"/>
<path d="M905.662 336.628H874.713C868.085 336.628 862.713 331.256 862.713 324.628V290.341C862.713 283.713 857.34 278.341 850.713 278.341H673.262C666.634 278.341 661.262 272.968 661.262 266.341V196.262C661.262 189.634 655.889 184.262 649.262 184.262H514.008" stroke="url(#paint2_linear_1_5287)"/>
<path d="M140.76 206.759H229.5C231.709 206.759 233.5 204.968 233.5 202.759V188C233.5 185.791 235.291 184 237.5 184H461.855" stroke="url(#paint3_linear_1_5287)"/>
<path d="M86.5625 335.605V287.272C86.5625 280.645 91.9351 275.272 98.5625 275.272H287.262C293.89 275.272 299.262 269.9 299.262 263.272V229C299.262 222.373 304.635 217 311.262 217H463.9" stroke="url(#paint4_linear_1_5287)"/>
<path d="M42.5898 30.8711H118.533C125.16 30.8711 130.533 36.2437 130.533 42.8711V88.4076C130.533 95.035 135.906 100.408 142.533 100.408H310.781C317.408 100.408 322.781 105.78 322.781 112.408L322.781 139.499C322.781 146.126 328.154 151.499 334.781 151.499H464.922" stroke="url(#paint5_linear_1_5287)"/>
<g filter="url(#filter0_i_1_5287)">
<rect x="421" y="123" width="117.551" height="117.551" rx="11.7551" fill="#1E1E1E"/>
</g>
<rect x="421.98" y="123.98" width="115.592" height="115.592" rx="10.7755" stroke="white" stroke-opacity="0.12" stroke-width="1.95918"/>
<g filter="url(#filter1_ii_1_5287)">
<path d="M509.384 162.91C509.481 162.853 509.561 162.773 509.617 162.675C509.672 162.578 509.702 162.468 509.702 162.356C509.702 162.245 509.672 162.135 509.617 162.038C509.561 161.94 509.481 161.86 509.384 161.803L484.926 147.594C483.361 146.687 481.585 146.209 479.776 146.209C477.967 146.209 476.19 146.687 474.626 147.594L450.173 161.803C450.076 161.86 449.996 161.94 449.94 162.038C449.884 162.135 449.855 162.245 449.855 162.356C449.855 162.468 449.884 162.578 449.94 162.675C449.996 162.773 450.076 162.853 450.173 162.91L479.456 180.136C479.555 180.194 479.667 180.225 479.782 180.225C479.896 180.225 480.008 180.194 480.107 180.136L509.384 162.91ZM447.431 167.267C447.334 167.21 447.223 167.181 447.11 167.181C446.997 167.181 446.887 167.211 446.789 167.268C446.692 167.324 446.611 167.406 446.555 167.504C446.499 167.602 446.47 167.713 446.471 167.826V195.67C446.473 197.012 446.827 198.329 447.496 199.492C448.166 200.655 449.129 201.622 450.288 202.297L476.254 217.866C476.351 217.922 476.462 217.952 476.574 217.952C476.686 217.952 476.797 217.923 476.894 217.866C476.992 217.81 477.072 217.73 477.129 217.632C477.185 217.535 477.215 217.425 477.215 217.312V185.007C477.215 184.895 477.185 184.784 477.129 184.687C477.073 184.59 476.992 184.509 476.894 184.453L447.431 167.267ZM482.339 185.119V217.304C482.339 217.417 482.369 217.527 482.425 217.624C482.481 217.722 482.562 217.802 482.659 217.858C482.757 217.915 482.867 217.944 482.979 217.944C483.092 217.944 483.202 217.914 483.299 217.858L509.264 202.289C510.422 201.615 511.384 200.649 512.054 199.488C512.724 198.327 513.079 197.01 513.083 195.67V167.826C513.082 167.713 513.052 167.603 512.996 167.506C512.94 167.409 512.859 167.329 512.762 167.273C512.664 167.217 512.554 167.187 512.442 167.187C512.329 167.187 512.219 167.217 512.122 167.273L482.659 184.567C482.562 184.623 482.481 184.703 482.425 184.8C482.369 184.897 482.339 185.007 482.339 185.119Z" fill="#121212"/>
</g>
<path d="M512.441 167.324C512.53 167.324 512.617 167.348 512.693 167.392C512.77 167.436 512.834 167.499 512.878 167.575C512.911 167.632 512.933 167.696 512.941 167.761L512.945 167.826V195.67C512.941 196.986 512.593 198.279 511.936 199.419C511.278 200.559 510.332 201.508 509.194 202.171L509.193 202.172L483.23 217.739C483.154 217.783 483.068 217.807 482.979 217.807C482.891 217.807 482.804 217.783 482.728 217.739C482.651 217.695 482.588 217.632 482.544 217.556C482.5 217.479 482.476 217.392 482.476 217.304V185.119L482.48 185.054C482.489 184.989 482.511 184.926 482.544 184.869C482.588 184.793 482.651 184.73 482.728 184.686L482.729 184.685L512.191 167.392L512.19 167.391C512.267 167.347 512.354 167.324 512.441 167.324ZM479.776 146.346C481.561 146.346 483.314 146.818 484.857 147.713V147.712L509.314 161.921V161.922C509.39 161.966 509.454 162.029 509.498 162.105C509.542 162.182 509.564 162.268 509.564 162.356C509.564 162.444 509.542 162.531 509.498 162.607C509.454 162.684 509.39 162.747 509.314 162.791V162.792L480.037 180.018C479.96 180.063 479.871 180.088 479.781 180.088C479.692 180.088 479.604 180.063 479.526 180.018L450.242 162.792V162.791C450.166 162.747 450.102 162.684 450.059 162.607C450.015 162.531 449.992 162.444 449.992 162.356C449.992 162.268 450.015 162.182 450.059 162.105C450.102 162.029 450.166 161.966 450.242 161.922L474.693 147.712L474.694 147.713C476.238 146.818 477.992 146.346 479.776 146.346ZM446.607 167.824C446.607 167.736 446.63 167.649 446.674 167.572C446.718 167.495 446.782 167.431 446.858 167.387C446.935 167.342 447.022 167.319 447.11 167.318C447.199 167.318 447.287 167.341 447.363 167.386V167.385L476.825 184.571H476.826C476.903 184.615 476.966 184.679 477.01 184.756C477.054 184.832 477.077 184.919 477.077 185.007V217.312C477.077 217.401 477.054 217.487 477.01 217.563C476.966 217.64 476.903 217.704 476.826 217.748C476.75 217.792 476.662 217.815 476.574 217.815C476.486 217.815 476.399 217.791 476.322 217.747H476.321L450.358 202.18L450.357 202.179L450.146 202.051C449.101 201.396 448.232 200.494 447.615 199.424C446.958 198.282 446.61 196.988 446.607 195.67V167.824Z" stroke="white" stroke-width="0.274286"/>
<rect width="78.3673" height="78.3673" rx="11.7551" fill="#1E1E1E"/>
<rect x="0.979592" y="0.979592" width="76.4082" height="76.4082" rx="10.7755" stroke="white" stroke-opacity="0.12" stroke-width="1.95918"/>
<path d="M68 33.0326C68 25.8386 62.176 20 55 20C47.824 20 42 25.8386 42 33.0326C42 39.3403 46.472 44.5925 52.4 45.8045V36.9424H49.8V33.0326H52.4V29.7744C52.4 27.2591 54.441 25.213 56.95 25.213H60.2V29.1228H57.6C56.885 29.1228 56.3 29.7093 56.3 30.4261V33.0326H60.2V36.9424H56.3V46C62.865 45.3484 68 39.7965 68 33.0326Z" fill="white"/>
<path d="M24.3364 32C25.7988 32.0039 26.5411 32.0117 27.182 32.0299L27.4342 32.039C27.7253 32.0494 28.0126 32.0624 28.3597 32.078C29.7428 32.143 30.6866 32.3614 31.5146 32.6825C32.3726 33.0127 33.0954 33.4599 33.8181 34.1813C34.4791 34.8312 34.9906 35.6173 35.317 36.4849C35.638 37.313 35.8564 38.2568 35.9214 39.6412C35.937 39.987 35.95 40.2743 35.9604 40.5668L35.9682 40.819C35.9877 41.4586 35.9955 42.2009 35.9981 43.6633L35.9994 44.6331V46.3361C36.0026 47.2843 35.9926 48.2325 35.9695 49.1804L35.9617 49.4326C35.9513 49.7251 35.9383 50.0124 35.9227 50.3582C35.8577 51.7426 35.6367 52.6851 35.317 53.5145C34.9916 54.3826 34.48 55.1689 33.8181 55.818C33.1681 56.4788 32.3821 56.9903 31.5146 57.3169C30.6866 57.638 29.7428 57.8564 28.3597 57.9214C28.0513 57.9359 27.7427 57.9489 27.4342 57.9604L27.182 57.9682C26.5411 57.9864 25.7988 57.9955 24.3364 57.9981L23.3667 57.9994H21.6651C20.7164 58.0027 19.7678 57.9927 18.8195 57.9695L18.5673 57.9617C18.2587 57.95 17.9502 57.9366 17.6418 57.9214C16.2586 57.8564 15.3149 57.638 14.4855 57.3169C13.618 56.9911 12.8323 56.4795 12.1833 55.818C11.5217 55.1684 11.0098 54.3823 10.6832 53.5145C10.3621 52.6864 10.1437 51.7426 10.0787 50.3582C10.0643 50.0497 10.0513 49.7412 10.0397 49.4326L10.0332 49.1804C10.0093 48.2325 9.99846 47.2843 10.0008 46.3361V43.6633C9.99712 42.7151 10.0067 41.7669 10.0293 40.819L10.0384 40.5668C10.0488 40.2743 10.0618 39.987 10.0774 39.6412C10.1424 38.2568 10.3608 37.3143 10.6819 36.4849C11.0083 35.6164 11.5213 34.8301 12.1846 34.1813C12.8334 33.5203 13.6187 33.0088 14.4855 32.6825C15.3149 32.3614 16.2573 32.143 17.6418 32.078C17.9875 32.0624 18.2761 32.0494 18.5673 32.039L18.8195 32.0312C19.7674 32.0081 20.7156 31.9981 21.6638 32.0013L24.3364 32ZM23.0001 38.4998C21.2763 38.4998 19.623 39.1847 18.4041 40.4036C17.1852 41.6226 16.5004 43.2758 16.5004 44.9997C16.5004 46.7236 17.1852 48.3768 18.4041 49.5958C19.623 50.8147 21.2763 51.4995 23.0001 51.4995C24.7239 51.4995 26.3771 50.8147 27.596 49.5958C28.815 48.3768 29.4998 46.7236 29.4998 44.9997C29.4998 43.2758 28.815 41.6226 27.596 40.4036C26.3771 39.1847 24.7239 38.4998 23.0001 38.4998ZM23.0001 41.0998C23.5122 41.0997 24.0193 41.2005 24.4925 41.3964C24.9657 41.5923 25.3957 41.8795 25.7578 42.2416C26.12 42.6037 26.4074 43.0335 26.6034 43.5067C26.7995 43.9798 26.9004 44.4869 26.9005 44.999C26.9006 45.5112 26.7998 46.0183 26.6039 46.4915C26.408 46.9647 26.1208 47.3947 25.7588 47.7569C25.3967 48.1191 24.9668 48.4064 24.4937 48.6025C24.0206 48.7986 23.5135 48.8995 23.0014 48.8996C21.9671 48.8996 20.9752 48.4887 20.2438 47.7573C19.5125 47.026 19.1016 46.034 19.1016 44.9997C19.1016 43.9654 19.5125 42.9734 20.2438 42.242C20.9752 41.5107 21.9671 41.0998 23.0014 41.0998M29.826 36.5499C29.3951 36.5499 28.9818 36.7211 28.677 37.0258C28.3723 37.3306 28.2011 37.7439 28.2011 38.1749C28.2011 38.6058 28.3723 39.0191 28.677 39.3239C28.9818 39.6286 29.3951 39.7998 29.826 39.7998C30.257 39.7998 30.6703 39.6286 30.975 39.3239C31.2798 39.0191 31.451 38.6058 31.451 38.1749C31.451 37.7439 31.2798 37.3306 30.975 37.0258C30.6703 36.7211 30.257 36.5499 29.826 36.5499Z" fill="white"/>
<rect x="39.1836" y="291.918" width="78.3673" height="78.3673" rx="11.7551" fill="#1E1E1E"/>
<rect x="40.1632" y="292.898" width="76.4082" height="76.4082" rx="10.7755" stroke="white" stroke-opacity="0.12" stroke-width="1.95918"/>
<rect x="52" y="345.105" width="51" height="5.36842" fill="#121212"/>
<path d="M64.5273 312H98.5273V338.842H75.7116L64.5273 312Z" fill="#505050"/>
<path d="M57.3677 340.631V312H98.5256V343.763" stroke="white" stroke-width="2.68421" stroke-linecap="round"/>
<path d="M84.2105 344.658H103V350.474H52V344.658H71.2368" stroke="white" stroke-width="2.68421" stroke-linecap="round"/>
<rect x="123.428" y="168.488" width="62.6939" height="62.6939" rx="7.83673" fill="#1E1E1E"/>
<rect x="124.407" y="169.468" width="60.7347" height="60.7347" rx="6.85714" stroke="white" stroke-opacity="0.12" stroke-width="1.95918"/>
<path fill-rule="evenodd" clip-rule="evenodd" d="M145.596 179C143.61 179 142 180.61 142 182.596V217.353C142 219.339 143.61 220.949 145.596 220.949H163.873C165.859 220.949 167.469 219.339 167.469 217.353V182.596C167.469 180.61 165.859 179 163.873 179H145.596ZM165.372 183.794H144.098V214.656H165.372V183.794ZM150.391 181.697C150.391 181.2 150.793 180.798 151.29 180.798H158.181C158.678 180.798 159.08 181.2 159.08 181.697C159.08 182.193 158.678 182.595 158.181 182.595H151.29C150.793 182.595 150.391 182.193 150.391 181.697ZM154.884 219.45C155.877 219.45 156.682 218.645 156.682 217.652C156.682 216.66 155.877 215.855 154.884 215.855C153.891 215.855 153.086 216.66 153.086 217.652C153.086 218.645 153.891 219.45 154.884 219.45Z" fill="white"/>
<rect x="882" y="298" width="78.3673" height="78.3673" rx="11.7551" fill="#1E1E1E"/>
<rect x="882.98" y="298.98" width="76.4082" height="76.4082" rx="10.7755" stroke="white" stroke-opacity="0.12" stroke-width="1.95918"/>
<rect x="908.955" y="325.041" width="43.7421" height="28.4736" rx="3.71395" fill="#131111"/>
<rect x="912.67" y="333.294" width="8.25322" height="5.36459" rx="1.23798" fill="url(#paint6_linear_1_5287)"/>
<rect x="912.67" y="333.294" width="8.25322" height="5.36459" rx="1.23798" fill="url(#paint7_linear_1_5287)"/>
<path d="M945.484 329.168V342.549C945.484 342.586 945.469 342.622 945.442 342.649C945.415 342.675 945.379 342.69 945.341 342.69C945.316 342.689 945.292 342.682 945.271 342.669C945.25 342.657 945.233 342.639 945.221 342.618L937.698 329.589C937.623 329.461 937.514 329.354 937.383 329.28C937.252 329.206 937.104 329.167 936.953 329.168H933.716V345.175H941.728L940.634 343.564C940.442 343.282 940.182 343.051 939.878 342.891C939.574 342.731 939.234 342.648 938.888 342.648H936.806V333.458C936.806 333.446 936.809 333.434 936.814 333.422C936.819 333.41 936.826 333.4 936.835 333.391C936.844 333.382 936.855 333.375 936.866 333.37C936.878 333.366 936.891 333.363 936.903 333.363C936.92 333.364 936.937 333.368 936.952 333.377C936.967 333.385 936.979 333.397 936.987 333.411L944.593 346.439C944.668 346.567 944.777 346.673 944.907 346.747C945.037 346.821 945.185 346.86 945.336 346.859H948.572V329.168H945.484Z" fill="#505050"/>
<path d="M943.441 349.388H936.568C936.175 349.388 935.79 349.28 935.457 349.076C935.124 348.872 934.855 348.58 934.683 348.233L934 346.86H940.873C941.265 346.86 941.651 346.968 941.984 347.173C942.317 347.377 942.585 347.669 942.758 348.015L943.441 349.388Z" fill="#505050"/>
<path d="M892.808 363.655C891.257 363.655 890 362.397 890 360.846V313.808C890 312.257 891.257 311 892.808 311H925.103C926.654 311 927.911 312.257 927.911 313.808V360.846C927.911 362.397 926.654 363.655 925.103 363.655H892.808Z" fill="white"/>
<rect x="894.211" y="329.956" width="13.3391" height="29.4865" rx="2.80824" transform="rotate(-90 894.211 329.956)" fill="#505050"/>
<rect x="894.211" y="358.74" width="6.31854" height="8.42472" rx="1.40412" transform="rotate(-90 894.211 358.74)" fill="#2C2A2A"/>
<rect x="894.211" y="350.315" width="6.31854" height="8.42472" rx="1.40412" transform="rotate(-90 894.211 350.315)" fill="#2C2A2A"/>
<rect x="894.211" y="341.891" width="6.31854" height="8.42472" rx="1.40412" transform="rotate(-90 894.211 341.891)" fill="#2C2A2A"/>
<rect x="904.744" y="358.74" width="6.31854" height="8.42472" rx="1.40412" transform="rotate(-90 904.744 358.74)" fill="#2C2A2A"/>
<rect x="904.744" y="350.315" width="6.31854" height="8.42472" rx="1.40412" transform="rotate(-90 904.744 350.315)" fill="#2C2A2A"/>
<rect x="904.744" y="341.891" width="6.31854" height="8.42472" rx="1.40412" transform="rotate(-90 904.744 341.891)" fill="#2C2A2A"/>
<rect x="915.271" y="358.74" width="6.31854" height="8.42472" rx="1.40412" transform="rotate(-90 915.271 358.74)" fill="#2C2A2A"/>
<rect x="915.271" y="350.315" width="6.31854" height="8.42472" rx="1.40412" transform="rotate(-90 915.271 350.315)" fill="#2C2A2A"/>
<rect x="915.271" y="341.891" width="6.31854" height="8.42472" rx="1.40412" transform="rotate(-90 915.271 341.891)" fill="#2C2A2A"/>
<rect x="773.877" y="168.488" width="62.6939" height="62.6939" rx="7.83673" fill="#1E1E1E"/>
<rect x="774.857" y="169.468" width="60.7347" height="60.7347" rx="6.85714" stroke="white" stroke-opacity="0.12" stroke-width="1.95918"/>
<path fill-rule="evenodd" clip-rule="evenodd" d="M782 188.103C782 186.389 783.389 185 785.103 185H817.527C819.24 185 820.63 186.389 820.63 188.103V209.822C820.63 211.536 819.24 212.925 817.527 212.925H785.103C783.389 212.925 782 211.536 782 209.822V193.843H820.629V189.189H782V188.103ZM800.151 195.704H785.723V197.101H800.151V195.704Z" fill="white"/>
<path fill-rule="evenodd" clip-rule="evenodd" d="M809.498 204.184C808.683 204.655 808.088 205.429 807.844 206.338C807.601 207.246 807.728 208.214 808.199 209.028C808.67 209.843 809.445 210.437 810.354 210.681C811.263 210.924 812.231 210.797 813.046 210.326L815.568 208.872C815.96 208.646 816.46 208.78 816.686 209.171C816.913 209.562 816.778 210.063 816.387 210.289L813.865 211.744C812.674 212.431 811.258 212.617 809.93 212.261C808.601 211.906 807.468 211.037 806.781 209.847C806.093 208.656 805.907 207.242 806.263 205.914C806.619 204.586 807.488 203.454 808.679 202.767L811.2 201.312C811.592 201.086 812.093 201.22 812.319 201.612C812.545 202.003 812.411 202.504 812.019 202.73L809.498 204.184ZM814.683 200.248C814.457 199.857 814.591 199.356 814.983 199.13L817.504 197.675C818.695 196.988 820.111 196.802 821.44 197.158C822.768 197.513 823.901 198.382 824.589 199.572C825.277 200.763 825.463 202.177 825.107 203.505C824.751 204.833 823.882 205.965 822.691 206.652L820.169 208.107C819.777 208.333 819.277 208.199 819.05 207.807C818.824 207.416 818.958 206.915 819.35 206.689L821.872 205.235C822.687 204.764 823.281 203.99 823.525 203.081C823.769 202.173 823.641 201.205 823.171 200.391C822.7 199.576 821.925 198.982 821.016 198.738C820.107 198.495 819.138 198.622 818.323 199.093L815.802 200.547C815.41 200.773 814.909 200.639 814.683 200.248ZM811.323 207.226C811.097 206.835 811.231 206.334 811.623 206.108L819.007 201.848C819.398 201.622 819.899 201.756 820.125 202.147C820.352 202.539 820.217 203.039 819.826 203.265L812.442 207.526C812.05 207.752 811.549 207.617 811.323 207.226Z" fill="#131111"/>
<defs>
<filter id="filter0_i_1_5287" x="421" y="117.122" width="117.551" height="123.429" filterUnits="userSpaceOnUse" color-interpolation-filters="sRGB">
<feFlood flood-opacity="0" result="BackgroundImageFix"/>
<feBlend mode="normal" in="SourceGraphic" in2="BackgroundImageFix" result="shape"/>
<feColorMatrix in="SourceAlpha" type="matrix" values="0 0 0 0 0 0 0 0 0 0 0 0 0 0 0 0 0 0 127 0" result="hardAlpha"/>
<feOffset dy="-5.87755"/>
<feGaussianBlur stdDeviation="5.58367"/>
<feComposite in2="hardAlpha" operator="arithmetic" k2="-1" k3="1"/>
<feColorMatrix type="matrix" values="0 0 0 0 1 0 0 0 0 1 0 0 0 0 1 0 0 0 0.25 0"/>
<feBlend mode="normal" in2="shape" result="effect1_innerShadow_1_5287"/>
</filter>
<filter id="filter1_ii_1_5287" x="443.268" y="146.209" width="73.0173" height="72.3837" filterUnits="userSpaceOnUse" color-interpolation-filters="sRGB">
<feFlood flood-opacity="0" result="BackgroundImageFix"/>
<feBlend mode="normal" in="SourceGraphic" in2="BackgroundImageFix" result="shape"/>
<feColorMatrix in="SourceAlpha" type="matrix" values="0 0 0 0 0 0 0 0 0 0 0 0 0 0 0 0 0 0 127 0" result="hardAlpha"/>
<feOffset dx="3.2025" dy="0.6405"/>
<feGaussianBlur stdDeviation="1.76138"/>
<feComposite in2="hardAlpha" operator="arithmetic" k2="-1" k3="1"/>
<feColorMatrix type="matrix" values="0 0 0 0 1 0 0 0 0 1 0 0 0 0 1 0 0 0 0.32 0"/>
<feBlend mode="normal" in2="shape" result="effect1_innerShadow_1_5287"/>
<feColorMatrix in="SourceAlpha" type="matrix" values="0 0 0 0 0 0 0 0 0 0 0 0 0 0 0 0 0 0 127 0" result="hardAlpha"/>
<feOffset dx="-3.2025" dy="0.6405"/>
<feGaussianBlur stdDeviation="1.76138"/>
<feComposite in2="hardAlpha" operator="arithmetic" k2="-1" k3="1"/>
<feColorMatrix type="matrix" values="0 0 0 0 1 0 0 0 0 1 0 0 0 0 1 0 0 0 0.32 0"/>
<feBlend mode="normal" in2="effect1_innerShadow_1_5287" result="effect2_innerShadow_1_5287"/>
</filter>
<linearGradient id="paint0_linear_1_5287" x1="493.555" y1="144.001" x2="730.529" y2="-131.135" gradientUnits="userSpaceOnUse">
<stop stop-color="#187AC9"/>
<stop offset="1" stop-color="#C5D6E3"/>
</linearGradient>
<linearGradient id="paint1_linear_1_5287" x1="510.939" y1="199" x2="575.273" y2="59.1207" gradientUnits="userSpaceOnUse">
<stop stop-color="#187AC9"/>
<stop offset="1" stop-color="#C5D6E3"/>
</linearGradient>
<linearGradient id="paint2_linear_1_5287" x1="514.008" y1="336.628" x2="832.347" y2="89.7321" gradientUnits="userSpaceOnUse">
<stop stop-color="#187AC9"/>
<stop offset="1" stop-color="#C5D6E3"/>
</linearGradient>
<linearGradient id="paint3_linear_1_5287" x1="140.76" y1="206.759" x2="162.618" y2="113.707" gradientUnits="userSpaceOnUse">
<stop stop-color="#187AC9"/>
<stop offset="1" stop-color="#C5D6E3"/>
</linearGradient>
<linearGradient id="paint4_linear_1_5287" x1="86.5625" y1="335.605" x2="342.197" y2="90.2156" gradientUnits="userSpaceOnUse">
<stop stop-color="#187AC9"/>
<stop offset="1" stop-color="#C5D6E3"/>
</linearGradient>
<linearGradient id="paint5_linear_1_5287" x1="42.5899" y1="151.499" x2="302.41" y2="-122.968" gradientUnits="userSpaceOnUse">
<stop stop-color="#187AC9"/>
<stop offset="1" stop-color="#C5D6E3"/>
</linearGradient>
<linearGradient id="paint6_linear_1_5287" x1="916.641" y1="333.294" x2="920.604" y2="338.665" gradientUnits="userSpaceOnUse">
<stop stop-color="#EDECEC"/>
<stop offset="1" stop-color="#C4C4C4"/>
</linearGradient>
<linearGradient id="paint7_linear_1_5287" x1="916.641" y1="333.294" x2="920.604" y2="338.665" gradientUnits="userSpaceOnUse">
<stop stop-color="#6D6D6D"/>
<stop offset="1" stop-color="#131111"/>
</linearGradient>
</defs>
</svg>
